<svg xmlns="http://www.w3.org/2000/svg" width="256" height="256" viewBox="0 0 100 100"><rect width="100" height="100" rx="20" fill="#4cd9cc"></rect><path d="M26.69 74.16L26.69 74.16Q30.47 74.16 32.95 73.40Q35.42 72.64 36.50 71.91L36.50 71.91L36.50 58.86L25.34 60.03Q20.66 60.48 18.41 62.15Q16.16 63.81 16.16 67.06L16.16 67.06Q16.16 70.47 18.77 72.32Q21.38 74.16 26.69 74.16ZM26.60 36.09L26.60 36.09Q34.43 36.09 39.02 39.60Q43.61 43.12 43.61 50.67L43.61 50.67L43.61 72.00Q43.61 73.98 42.85 75.02Q42.08 76.05 40.55 76.95L40.55 76.95Q38.39 78.22 34.84 79.16Q31.28 80.11 26.69 80.11L26.69 80.11Q18.23 80.11 13.60 76.78Q8.96 73.44 8.96 67.14L8.96 67.14Q8.96 61.20 12.83 58.19Q16.70 55.17 23.72 54.45L23.72 54.45L36.50 53.20L36.50 50.67Q36.50 46.17 33.80 44.10Q31.10 42.04 26.51 42.04L26.51 42.04Q22.73 42.04 19.40 43.12Q16.07 44.20 13.46 45.55L13.46 45.55Q12.74 44.91 12.16 44.10Q11.57 43.30 11.57 42.30L11.57 42.30Q11.57 41.05 12.20 40.23Q12.83 39.42 14.18 38.70L14.18 38.70Q16.61 37.45 19.76 36.77Q22.91 36.09 26.60 36.09ZM64.13 78.66L64.13 78.66Q63.68 78.84 62.78 79.07Q61.88 79.30 60.80 79.30L60.80 79.30Q56.93 79.30 56.93 76.05L56.93 76.05L56.93 20.52Q57.38 20.34 58.33 20.12Q59.27 19.90 60.35 19.90L60.35 19.90Q64.13 19.90 64.13 23.13L64.13 23.13L64.13 55.53L83.84 36.45Q86 36.55 87.22 37.49Q88.43 38.44 88.43 39.97L88.43 39.97Q88.43 41.23 87.62 42.17Q86.81 43.12 85.46 44.38L85.46 44.38L70.97 57.06L91.04 75.06Q90.86 77.05 89.83 78.22Q88.79 79.39 87.08 79.39L87.08 79.39Q85.73 79.39 84.61 78.71Q83.48 78.03 82.31 76.78L82.31 76.78L64.13 58.50L64.13 78.66Z" fill="#fff"></path></svg>